<?xml version="1.0" encoding="iso-8859-1"?>
<!-- Generator: Adobe Illustrator 18.1.1, SVG Export Plug-In . SVG Version: 6.00 Build 0)  -->
<svg version="1.1" id="Capa_1" xmlns="http://www.w3.org/2000/svg" xmlns:xlink="http://www.w3.org/1999/xlink" x="0px" y="0px"
	 viewBox="0 0 23.796 23.796" style="enable-background:new 0 0 23.796 23.796;" xml:space="preserve">
<g>
	<path d="M23.796,10.128c0-4.442-5.329-8.044-11.9-8.044C5.326,2.084,0,5.686,0,10.128c0,4.445,5.326,8.047,11.896,8.047
		c1.385,0,2.713-0.161,3.949-0.455c1.738,0.878,4.052,2.251,5.679,3.992c-0.362-0.384-2.157-2.336-3.44-4.71
		C21.506,15.588,23.796,13.039,23.796,10.128z M17.742,16.333c-1.387,0.577-1.325,0.546-2.935,0.884
		c-0.926,0.173-1.905,0.269-2.912,0.269c-6.006,0-10.876-3.292-10.876-7.357c0-4.062,4.87-7.355,10.876-7.355
		c6.007,0,10.881,3.293,10.881,7.355C22.776,12.738,20.769,15.027,17.742,16.333z"/>
	<g>
	</g>
	<g>
	</g>
	<g>
	</g>
	<g>
	</g>
	<g>
	</g>
	<g>
	</g>
	<g>
	</g>
	<g>
	</g>
	<g>
	</g>
	<g>
	</g>
	<g>
	</g>
	<g>
	</g>
	<g>
	</g>
	<g>
	</g>
	<g>
	</g>
</g>
<g>
</g>
<g>
</g>
<g>
</g>
<g>
</g>
<g>
</g>
<g>
</g>
<g>
</g>
<g>
</g>
<g>
</g>
<g>
</g>
<g>
</g>
<g>
</g>
<g>
</g>
<g>
</g>
<g>
</g>
</svg>
