<svg id="Capa_1" enable-background="new 0 0 512 512" height="512" viewBox="0 0 512 512" width="512" xmlns="http://www.w3.org/2000/svg"><g><path d="m268.493 410.604h-4.993v-34.768c0-4.143-3.357-7.5-7.5-7.5h-13.508c-4.142 0-7.5 3.357-7.5 7.5s3.358 7.5 7.5 7.5h6.008v27.268h-4.993c-4.142 0-7.5 3.357-7.5 7.5s3.358 7.5 7.5 7.5h24.986c4.143 0 7.5-3.357 7.5-7.5s-3.357-7.5-7.5-7.5z"/><g><path d="m439.549 74.877-49.795-71.657c-1.377-1.984-3.752-3.22-6.164-3.22h-255.18c-2.408 0-4.79 1.242-6.164 3.22l-49.794 71.657c-1.697 2.441-1.791 5.654-.241 8.191l98.76 161.619h-12.917c-4.142 0-7.5 3.357-7.5 7.5v37.313c0 4.143 3.358 7.5 7.5 7.5h41.156c-29.995 17.034-51.673 48.379-56.884 82.498-.625 4.095 2.187 7.921 6.282 8.546 4.097.629 7.921-2.188 8.546-6.282 7.38-48.323 49.874-84.762 98.846-84.762 55.141 0 100 44.859 100 100s-44.859 100-100 100c-48.996 0-91.494-36.464-98.855-84.819-.623-4.094-4.45-6.901-8.543-6.286-4.095.624-6.909 4.449-6.286 8.544 4.095 26.901 17.733 51.582 38.402 69.495 20.882 18.098 47.618 28.066 75.282 28.066 63.411 0 115-51.589 115-115 0-42.793-23.497-80.197-58.264-100h41.211c4.143 0 7.5-3.357 7.5-7.5v-37.313c0-4.143-3.357-7.5-7.5-7.5h-12.917l98.76-161.619c1.55-2.537 1.455-5.75-.241-8.191zm-68.327-59.877-29.542 56.66h-38.9c-4.143 0-7.5 3.357-7.5 7.5s3.357 7.5 7.5 7.5h31.077l-77.857 149.307-77.857-149.307h91.947c4.143 0 7.5-3.357 7.5-7.5s-3.357-7.5-7.5-7.5h-99.769l-29.543-56.66zm-283.662 64.42 39.928-57.458 116.142 222.726h-55.08zm258.886 202.58h-180.892v-22.313h180.892zm-22.995-37.312h-55.082l116.143-222.726 39.928 57.458z"/><path d="m270.509 454.628c-4.018 1.011-6.453 5.087-5.442 9.104 2.282 4.54 5.317 6.354 9.104 5.442 33.119-8.341 56.249-38.02 56.249-72.174 0-41.035-33.385-74.42-74.42-74.42s-74.42 33.385-74.42 74.42c0 34.154 23.13 63.833 56.249 72.174 4.016 1.008 8.093-1.425 9.104-5.442 1.012-4.017-1.425-8.093-5.441-9.104-26.443-6.659-44.912-30.356-44.912-57.628 0-32.765 26.656-59.42 59.42-59.42 32.765 0 59.42 26.655 59.42 59.42 0 27.271-18.469 50.969-44.911 57.628z"/></g></g></svg>