<svg id="line_icons" height="512" viewBox="0 0 74 74" width="512" xmlns="http://www.w3.org/2000/svg" data-name="line icons"><path d="m51.893 47.4a1 1 0 0 1 -.707-.293 18.9 18.9 0 0 0 -6.169-4.121 1 1 0 1 1 .763-1.848 20.842 20.842 0 0 1 5.958 3.74 29.26 29.26 0 0 0 4.638-16.168c0-14.55-7.811-24.71-18.994-24.71s-19.008 10.16-19.008 24.707a29.191 29.191 0 0 0 4.649 16.17 20.8 20.8 0 0 1 5.947-3.742 1 1 0 1 1 .763 1.848 18.891 18.891 0 0 0 -6.155 4.117 1 1 0 0 1 -1.511-.112 30.853 30.853 0 0 1 -5.693-18.285c0-15.721 8.639-26.703 21.008-26.703s20.994 10.982 20.994 26.707a30.944 30.944 0 0 1 -5.676 18.284 1 1 0 0 1 -.73.4z"/><path d="m37.986 46.661h-1.222a.959.959 0 0 1 -.142-.01c-15.8-2.261-14.018-25.075-14-25.305a1 1 0 0 1 .4-.716 1.011 1.011 0 0 1 .8-.177 21.611 21.611 0 0 0 9.034-.27c6.826-2 9.359-6.17 9.384-6.212a1 1 0 0 1 1.843.306c.043.2 1.152 5.1 7.22 6.17a1 1 0 0 1 .821.9c.021.23 1.807 23.044-14 25.305a.959.959 0 0 1 -.138.009zm-1.15-2h1.078c12.384-1.834 12.411-18.655 12.26-22.4a10.57 10.57 0 0 1 -7.384-5.737 19.957 19.957 0 0 1 -9.372 5.576 22.585 22.585 0 0 1 -8.854.494c-.124 4.335.247 20.286 12.272 22.067z"/><path d="m61.74 72.72h-48.56a1 1 0 0 1 -1-1v-10.28a11.511 11.511 0 0 1 9.91-11.617l3.7-.581a6.339 6.339 0 0 0 4.91-5.453 1 1 0 0 1 1.995.091c0 .037 0 .086-.006.123a8.352 8.352 0 0 1 -6.53 7.2l-3.749.591a9.979 9.979 0 0 0 -2.109.539 9.784 9.784 0 0 0 -6.116 9.1v9.28h46.555v-9.273a9.765 9.765 0 0 0 -6.124-9.1 10.009 10.009 0 0 0 -2.108-.54l-3.683-.579a8.357 8.357 0 0 1 -6.6-7.341 1 1 0 0 1 1.99-.2 6.344 6.344 0 0 0 4.98 5.571l3.63.569a11.993 11.993 0 0 1 2.541.661 11.756 11.756 0 0 1 7.374 10.959v10.28a1 1 0 0 1 -1 1z"/><path d="m37.46 58.25a.993.993 0 0 1 -.682-.269l-8.81-8.22a1 1 0 0 1 1.364-1.461l8.128 7.584 8.14-7.584a1 1 0 1 1 1.363 1.463l-8.819 8.22a.993.993 0 0 1 -.684.267z"/></svg>